<svg xmlns="http://www.w3.org/2000/svg" viewBox="0 0 600 600">
  <path fill="white" d="M 300 10 A 290 290 0 0 0 10 300 A 290 290 0 0 0 300 590 A 290 290 0 0 0 590 300 A 290 290 0 0 0 300 10 z M 109.625 143.96875 L 486.69141 143.96875 C 504.05308 143.96875 512.73557 165.01557 500.48438 177.26758 L 350.17188 327.59961 L 350.17188 540.56836 C 350.17187 556.42735 332.30789 565.52791 319.48047 556.54883 L 254.46094 511.05273 C 249.24641 507.40188 246.14062 501.43687 246.14062 495.07227 L 246.14062 327.59961 L 95.832031 177.26758 C 83.555651 164.9912 92.299083 143.96875 109.625 143.96875 z "/>
</svg>
